Coordinates
version=1
nRows=17
nColumns=36
inDegrees=yes

Units are S.I. units (second, meters, Newtons, ...)
If the header above contains a line with 'inDegrees', this indicates whether rotational values are in degrees (yes) or radians (no).

endheader
time	pelvis_tilt	pelvis_list	pelvis_rotation	pelvis_tx	pelvis_ty	pelvis_tz	hip_flexion_r	hip_adduction_r	hip_rotation_r	knee_angle_r	knee_angle_r_beta	ankle_angle_r	subtalar_angle_r	mtp_angle_r	hip_flexion_l	hip_adduction_l	hip_rotation_l	knee_angle_l	knee_angle_l_beta	ankle_angle_l	subtalar_angle_l	mtp_angle_l	lumbar_extension	lumbar_bending	lumbar_rotation	arm_flex_r	arm_add_r	arm_rot_r	elbow_flex_r	pro_sup_r	arm_flex_l	arm_add_l	arm_rot_l	elbow_flex_l	pro_sup_l
      7.53333330	    -24.95762688	     -2.33734681	     -5.25453070	      0.55643881	      0.62756648	     -0.04229922	     84.34862847	    -17.93322902	     -7.00432072	     95.65822199	      1.66955093	     41.75275455	     -8.98641677	     -7.49999987	     91.76244892	    -23.78107967	      3.16975115	     97.56836485	      1.70288921	     36.28766906	     -8.89603276	     -7.49999987	    -11.38199363	      3.68589081	      3.16121824	     60.98743594	     -8.78634517	     66.13661510	    124.18410630	     98.17878978	     69.17058383	     -2.54111855	     64.59502957	    120.19938197	    100.81546896
      7.55000000	    -25.10151713	     -2.32414668	     -5.30091063	      0.55587259	      0.62764842	     -0.04251232	     84.62539465	    -17.99222248	     -6.98944885	     95.69047610	      1.67011387	     41.49679439	     -9.05958624	     -7.49999987	     92.02335362	    -23.62229283	      3.26888504	     97.63062883	      1.70397592	     36.35648677	     -8.94962687	     -7.49999987	    -11.47641040	      3.70544806	      3.87110151	     60.83306515	     -9.45474357	     64.22877970	    123.95505950	    100.90522922	     69.26283023	     -1.70761559	     64.25951942	    119.92832819	    105.45773677
      7.56666670	    -25.25207213	     -2.32642717	     -5.32445302	      0.54920835	      0.62664700	     -0.04045748	     84.91133451	    -17.98203997	     -6.94949883	     95.68387125	      1.66999859	     41.33660345	     -9.00064951	     -7.49999987	     92.35736680	    -23.55550571	      3.33907806	     97.64763131	      1.70427267	     36.34387531	     -8.93976961	     -7.49999987	    -11.53400733	      3.77671993	      3.90611242	     61.18723286	     -9.57048066	     63.75312549	    123.96288926	    100.86577590	     70.11910014	     -1.87198546	     63.86155550	    120.07688100	    105.41832517
      7.58333330	    -25.24532606	     -2.43684014	     -5.38070208	      0.54900938	      0.63115213	     -0.04021608	     84.80647463	    -17.84983946	     -7.10312027	     95.38336295	      1.66475374	     41.03205219	     -9.13826777	     -7.49999987	     92.39310992	    -23.55439654	      3.46383631	     97.42499645	      1.70038696	     36.17573394	     -9.06298756	     -7.49999987	    -11.74463684	      3.84146589	      3.93489728	     60.73524694	     -8.95029431	     65.19205289	    123.24602416	     99.58486017	     69.85760604	     -2.48216961	     63.80929320	    120.18919331	    104.58621296
      7.60000000	    -25.26942772	     -2.40337976	     -5.42469131	      0.54945711	      0.63130798	     -0.04003986	     84.64568257	    -17.69042852	     -7.13660005	     94.99829697	      1.65803307	     40.85914058	     -9.13647922	     -7.49999987	     92.19674058	    -23.58816152	      3.35740912	     97.04907314	      1.69382586	     35.94722004	     -9.13838663	     -7.49999987	    -11.49286980	      3.62960552	      3.91310897	     60.74558756	     -8.66146471	     66.30256907	    123.59935454	     97.46542028	     70.20524876	     -2.80939366	     64.49206292	    120.38092640	    101.82756206
      7.61666670	    -25.25239075	     -2.52333954	     -5.47222455	      0.54945571	      0.63636014	     -0.03986714	     84.22811852	    -17.48063794	     -7.35939801	     94.40831866	      1.64773600	     40.60884829	     -9.09045466	     -7.49999987	     91.90564335	    -23.59820326	      3.39395585	     96.57040840	      1.68547159	     35.76039891	     -9.15660230	     -7.49999987	    -11.60001283	      3.74861904	      4.05788565	     60.55128278	     -9.17064147	     67.33072063	    122.76552865	     99.64169694	     69.32651136	     -3.12582235	     64.60612076	    119.98127686	    104.65902438
      7.63333330	    -25.05242855	     -2.55564124	     -5.49917858	      0.55628735	      0.64518349	     -0.04210286	     83.35453434	    -17.30998813	     -7.55915636	     93.49774460	      1.63184349	     40.34541989	     -9.06782658	     -7.49999987	     90.92296948	    -23.55593167	      3.17269451	     95.70573186	      1.67038013	     35.63198988	     -9.13632147	     -7.49999987	    -11.64894247	      3.76413485	      3.88928516	     59.44452948	    -10.67152499	     65.55668119	    122.47355744	     99.60624133	     68.27795793	     -3.22517456	     64.55284393	    119.94972448	    104.56053607
      7.65000000	    -24.87355535	     -2.53968680	     -5.55398158	      0.56258244	      0.64711698	     -0.04440435	     82.41492515	    -17.17618013	     -7.67543350	     92.55721331	      1.61542812	     40.06464813	     -9.04850540	     -7.49999987	     89.79916025	    -23.48250117	      2.87739300	     94.90067054	      1.65632916	     35.55695921	     -9.03835021	     -7.49999987	    -11.20146188	      3.73531418	      3.50885860	     59.01139984	    -10.83945560	     65.03289898	    123.80621089	     99.71744011	     67.32401602	     -2.96228399	     64.32346015	    120.60169923	    104.59836648
      7.66666670	    -25.12818854	     -2.44418018	     -5.64439292	      0.55027271	      0.64550099	     -0.04826213	     82.31099925	    -17.10355956	     -7.67883446	     91.90828604	      1.60410220	     39.91342816	     -8.91978581	     -7.49999987	     89.52407077	    -23.48275460	      2.52883320	     94.37270220	      1.64711438	     35.47998756	     -8.85424538	     -7.49999987	    -10.59314670	      3.85520649	      3.24717464	     59.61383387	    -10.81706891	     64.87221104	    124.11521445	     99.74121090	     68.00044190	     -2.51974725	     63.85017625	    120.70817660	    104.58012758
      7.68333330	    -24.91626924	     -1.91317349	     -5.56111873	      0.55007503	      0.64875858	     -0.04860186	     82.23405367	    -17.42391334	     -7.19698925	     91.61069234	      1.59890821	     39.47336719	     -8.81833879	     -7.49999987	     88.73442317	    -23.15190549	      1.74404765	     93.93994376	      1.63956132	     35.38899291	     -8.83533655	     -7.49999987	    -10.85174472	      3.21775920	      3.16699056	     60.94980442	    -11.06735074	     65.93178906	    124.68175074	     94.82119553	     69.23278695	     -1.80386852	     62.85250684	    120.57018663	     98.62837337
      7.70000000	    -24.76437689	     -1.98703052	     -5.60682110	      0.55617943	      0.65297741	     -0.04273822	     81.57741078	    -17.25713595	     -7.37998280	     90.95455828	      1.58745651	     39.31873243	     -8.59636834	     -7.49999987	     88.06493999	    -23.08271690	      1.66125069	     93.32925370	      1.62890277	     35.41730284	     -8.80683880	     -7.49999987	    -10.50176632	      3.14379788	      3.41182165	     60.08002909	    -10.01265146	     66.95979823	    124.71117944	     95.14181444	     68.83573910	     -1.42478374	     62.92873848	    120.62868805	     98.88742444
      7.71666670	    -24.13669450	     -2.21009052	     -5.65390039	      0.56167572	      0.66153772	     -0.03775315	     80.05185656	    -16.88800657	     -7.71681910	     89.96648630	      1.57021140	     39.27285110	     -8.55093193	     -7.49999987	     86.64115468	    -23.24015152	      1.55731458	     92.48010439	      1.61408231	     35.64193065	     -8.41281091	     -7.49999987	    -10.82231648	      3.60269480	      3.15243366	     60.98574702	     -8.37155400	     69.31338448	    123.22557007	     97.69766572	     67.60297384	     -2.47116203	     62.33960294	    121.53566593	    101.38183429
      7.73333330	    -24.38408067	     -2.19341425	     -5.54119985	      0.56170366	      0.66797051	     -0.03799996	     79.45372083	    -16.76562366	     -7.95022189	     88.92347908	      1.55200749	     39.23015317	     -8.49130733	     -7.49999987	     85.94953145	    -23.16494974	      1.26653195	     91.50207601	      1.59701250	     35.51140781	     -8.25704588	     -7.49999987	     -9.98240504	      3.50511208	      3.67608889	     61.27536241	     -7.62550527	     69.38366213	    123.44562309	     97.75583644	     67.58070468	     -2.42243377	     62.37624805	    121.36489158	    101.44422887
      7.75000000	    -23.89373823	     -2.25748462	     -5.68341398	      0.56151071	      0.67003939	     -0.03784359	     78.10055898	    -16.27068352	     -8.03601768	     87.91361688	      1.53438207	     39.03851222	     -8.54538610	     -7.49999987	     84.47671164	    -23.51523682	      0.85695201	     90.67609402	      1.58259639	     35.15011711	     -8.05831635	     -7.49999987	     -9.75040640	      3.33925849	      3.64872293	     60.20695759	     -7.29719675	     70.32435878	    123.30944226	     98.00588031	     66.58211561	     -2.72234879	     62.93209969	    120.90129486	    101.68939133
      7.76666670	    -23.27570480	     -2.21405689	     -5.64908511	      0.56208295	      0.67416681	     -0.03836796	     76.90674459	    -16.13166663	     -8.03115105	     87.17791521	      1.52154166	     39.01834454	     -8.35266802	     -7.49999987	     83.01592438	    -23.53675379	      0.41583963	     89.97411170	      1.57034449	     35.17379405	     -7.94689530	     -7.49999987	     -9.42824387	      3.20058871	      3.05486410	     61.46027963	     -8.42336099	     67.88632263	    122.79788559	     96.60152647	     67.58600029	     -3.14844760	     61.94196781	    120.42938106	    100.55479481
      7.78333330	    -22.53028349	     -2.25092680	     -5.68213143	      0.56150120	      0.68385146	     -0.03838287	     75.33598040	    -15.82366920	     -8.21685710	     86.11244230	      1.50294565	     38.67102629	     -8.47021672	     -7.49999987	     81.28263795	    -23.73101093	     -0.06091520	     89.01428919	      1.55359243	     35.06560306	     -7.46910131	     -7.49999987	     -9.65248326	      2.83934995	      3.39735731	     61.01473453	     -8.74151481	     66.42620622	    122.92008800	    101.80253071	     68.15961291	     -2.57482145	     61.79626202	    120.75031090	    105.34438026
      7.80000000	    -22.20340522	     -2.18401155	     -5.77584286	      0.56193175	      0.69289068	     -0.03735675	     74.21623428	    -15.56468631	     -8.37588761	     84.96083997	      1.48284639	     38.36080212	     -8.43803690	     -7.49999987	     79.92365251	    -23.88114617	     -0.63122925	     87.97725600	      1.53549278	     34.96554764	     -7.07275444	     -7.49999987	     -9.68167935	      2.73160744	      3.53086423	     62.30313577	     -7.99820248	     67.23777762	    123.08867946	    101.83266973	     68.74220564	     -2.49283451	     61.86655125	    121.24831748	    105.18670039
